<?xml version="1.0" encoding="UTF-8"?>
<svg width="20px" height="20px" viewBox="0 0 20 20" version="1.1" xmlns="http://www.w3.org/2000/svg" xmlns:xlink="http://www.w3.org/1999/xlink">
    <!-- Generator: Sketch 46.2 (44496) - http://www.bohemiancoding.com/sketch -->
    <title>Checkbox</title>
    <desc>Created with Sketch.</desc>
    <defs>
        <linearGradient x1="100%" y1="0%" x2="0%" y2="100%" id="linearGradient-1">
            <stop stop-color="#1DE9B6" offset="0%"></stop>
            <stop stop-color="#1DC4E9" offset="100%"></stop>
        </linearGradient>
    </defs>
    <g id="Styleguide" stroke="none" stroke-width="1" fill="none" fill-rule="evenodd">
        <g transform="translate(-506.000000, -2779.000000)" id="Additional-Elements">
            <g transform="translate(149.000000, 2576.000000)">
                <g id="Checkbox" transform="translate(65.000000, 199.000000)">
                    <g id="Checked" transform="translate(292.000000, 4.000000)">
                        <g id="Checkbox">
                            <rect id="Background" fill="url(#linearGradient-1)" x="0" y="0" width="20" height="20" rx="5"></rect>
                            <g id="Check" transform="translate(5.000000, 6.000000)" fill-rule="nonzero" fill="#FFFFFF">
                                <path d="M9.8796519,1.08509494 L3.72889241,7.23585443 C3.67471519,7.29003165 3.58699367,7.29003165 3.53294304,7.23585443 L0.0405379747,3.74332278 C-0.0135126582,3.68939873 -0.0135126582,3.60167722 0.0405379747,3.5475 L0.88914557,2.69889241 C0.943322785,2.64484177 1.0310443,2.64484177 1.08509494,2.69889241 L3.6310443,5.24471519 L8.83522152,0.0405379747 C8.88952532,-0.0135126582 8.97699367,-0.0135126582 9.03117089,0.0405379747 L9.8796519,0.88914557 C9.93382911,0.943196203 9.93382911,1.03079114 9.8796519,1.08509494 Z" id="Shape"></path>
                            </g>
                        </g>
                    </g>
                </g>
            </g>
        </g>
    </g>
</svg>