<?xml version="1.0" encoding="UTF-8"?>
<svg width="14px" height="14px" viewBox="0 0 14 14" version="1.1" xmlns="http://www.w3.org/2000/svg" xmlns:xlink="http://www.w3.org/1999/xlink">
    <!-- Generator: Sketch 46.2 (44496) - http://www.bohemiancoding.com/sketch -->
    <title>apps - material</title>
    <desc>Created with Sketch.</desc>
    <defs></defs>
    <g id="Symbols" stroke="none" stroke-width="1" fill="none" fill-rule="evenodd">
        <g id="icons-/-dashboard-selected" transform="translate(-3.000000, -3.000000)" fill="#1DE9B6">
            <path d="M13.32,16.68 L13.32,13.32 L16.68,13.32 L16.68,16.68 L13.32,16.68 Z M13.32,11.68 L13.32,8.32 L16.68,8.32 L16.68,11.68 L13.32,11.68 Z M8.32,6.68 L8.32,3.32 L11.68,3.32 L11.68,6.68 L8.32,6.68 Z M13.32,3.32 L16.68,3.32 L16.68,6.68 L13.32,6.68 L13.32,3.32 Z M8.32,11.68 L8.32,8.32 L11.68,8.32 L11.68,11.68 L8.32,11.68 Z M3.32,11.68 L3.32,8.32 L6.68,8.32 L6.68,11.68 L3.32,11.68 Z M3.32,16.68 L3.32,13.32 L6.68,13.32 L6.68,16.68 L3.32,16.68 Z M8.32,16.68 L8.32,13.32 L11.68,13.32 L11.68,16.68 L8.32,16.68 Z M3.32,6.68 L3.32,3.32 L6.68,3.32 L6.68,6.68 L3.32,6.68 Z" id="apps---material"></path>
        </g>
    </g>
</svg>