<?xml version="1.0" encoding="UTF-8"?>
<svg width="27px" height="27px" viewBox="0 0 27 27" version="1.1" xmlns="http://www.w3.org/2000/svg" xmlns:xlink="http://www.w3.org/1999/xlink">
    <!-- Generator: Sketch 46.2 (44496) - http://www.bohemiancoding.com/sketch -->
    <title>Fill 1</title>
    <desc>Created with Sketch.</desc>
    <defs></defs>
    <g id="Symbols" stroke="none" stroke-width="1" fill="none" fill-rule="evenodd">
        <g id="icons-/-differ-white" fill="#FFFFFF">
            <path d="M18.6920785,13.228074 C17.7491478,13.228074 16.9847193,12.4630809 16.9847193,11.5194315 C16.9847193,10.5757348 17.7491478,9.81078894 18.6920785,9.81078894 C19.6350092,9.81078894 20.3994377,10.5757348 20.3994377,11.5194315 C20.3994377,12.4630809 19.6350092,13.228074 18.6920785,13.228074 L18.6920785,13.228074 Z M18.6920785,15.0032748 C20.6146904,15.0032748 22.1732977,13.4435124 22.1732977,11.5194315 C22.1732977,9.59530324 20.6146904,8.03554085 18.6920785,8.03554085 C16.7694666,8.03554085 15.2108592,9.59530324 15.2108592,11.5194315 C15.2108592,13.4435124 16.7694666,15.0032748 18.6920785,15.0032748 L18.6920785,15.0032748 Z M6.68366471,11.4919277 L5.6106648,12.5638176 C5.16606464,13.0076178 5.16606464,13.7276392 5.6106648,14.1713921 C5.83291758,14.3935052 6.12422528,14.5045144 6.41520189,14.5045144 C6.70650959,14.5045144 6.99743891,14.3935052 7.21969169,14.1713921 L8.2927862,13.0994075 L9.3658807,14.1713921 C9.5878024,14.3935052 9.8791101,14.5045144 10.1704178,14.5045144 C10.4613471,14.5045144 10.7526548,14.3935052 10.9749549,14.1713921 C11.4195078,13.7276392 11.4195078,13.0076178 10.9749549,12.5638176 L9.90195498,11.4919277 L10.9749549,10.4200378 C11.4195078,9.97628499 11.4195078,9.25621623 10.9749549,8.81246338 C10.530402,8.36828448 9.81005518,8.36828448 9.3658807,8.81246338 L8.2927862,9.88444794 L7.21969169,8.81246338 C6.77513883,8.36828448 6.05521766,8.36828448 5.6106648,8.81246338 C5.16606464,9.25621623 5.16606464,9.97628499 5.6106648,10.4200378 L6.68366471,11.4919277 Z M21.3085504,3.10928778 L27,3.10928778 L27,18.5860086 C27,20.2112404 25.6813349,21.5288654 24.0546186,21.5288654 L13.6693264,21.5288654 C13.5345275,21.5288654 13.4035596,21.5736005 13.2969502,21.6561118 L6.81817991,26.8713675 C6.41926951,27.1808679 5.83868792,26.8968358 5.83868792,26.3923 L5.83868792,22.135416 C5.83868792,21.8004001 5.56691425,21.5288654 5.23161951,21.5288654 L2.94557064,21.5288654 C1.31885434,21.5288654 0,20.2112404 0,18.5860086 L0,3.10928778 L4.54551634,3.10928778 L5.66084786,0.876842657 C6.24497679,-0.292233546 7.19192783,-0.292328224 7.77610406,0.876842657 L8.89148288,3.10928778 L16.9625839,3.10928778 L18.0779154,0.876842657 C18.6620443,-0.292233546 19.6089954,-0.292328224 20.1931716,0.876842657 L21.3085504,3.10928778 Z" id="Fill-1"></path>
        </g>
    </g>
</svg>