<?xml version="1.0" encoding="iso-8859-1"?>
<!-- Generator: Adobe Illustrator 16.0.0, SVG Export Plug-In . SVG Version: 6.00 Build 0)  -->
<!DOCTYPE svg PUBLIC "-//W3C//DTD SVG 1.1//EN" "http://www.w3.org/Graphics/SVG/1.1/DTD/svg11.dtd">
<svg version="1.1" id="Capa_1" xmlns="http://www.w3.org/2000/svg" xmlns:xlink="http://www.w3.org/1999/xlink" x="0px" y="0px"
	 width="612px" height="612px" viewBox="0 0 612 612" style="enable-background:new 0 0 612 612;" xml:space="preserve">
	<g>
		<g fill="#1de9b6">
			<path d="M305.995,0C136.999,0,0,136.999,0,305.995C0,475.001,136.999,612,305.995,612C475.001,612,612,475.001,612,305.995
				C612,136.999,475.001,0,305.995,0z M325.694,532.236v-26.531c0-10.872-8.816-19.688-19.689-19.688
				c-10.873,0-19.689,8.816-19.689,19.688v26.53c-109.593-9.468-197.084-96.948-206.552-206.541h26.53
				c10.873,0,19.689-8.816,19.689-19.689c0-10.873-8.816-19.689-19.689-19.689h-26.53c9.468-109.593,96.959-197.084,206.542-206.552
				v26.541c0,10.873,8.816,19.689,19.689,19.689c10.872,0,19.688-8.816,19.688-19.689V79.764
				c109.604,9.468,197.084,96.959,206.553,206.542h-26.541c-10.873,0-19.689,8.816-19.689,19.689
				c0,10.872,8.816,19.688,19.689,19.688h26.54C522.768,435.287,435.287,522.768,325.694,532.236z"/>
			<path d="M420.047,276.461h-70.988c-9.417-13.693-25.177-22.703-43.054-22.703c-0.285,0-0.55,0.071-0.824,0.092l-64.687-91.034
				c-9.438-13.306-27.905-16.441-41.18-6.974c-13.295,9.448-16.421,27.884-6.974,41.18l64.748,91.125
				c-2.036,5.599-3.329,11.545-3.329,17.847c0,28.861,23.385,52.246,52.236,52.246c17.897,0,33.646-9.01,43.063-22.713h70.979
				c16.319,0,29.533-13.225,29.533-29.533C449.57,289.686,436.356,276.461,420.047,276.461z"/>
		</g>
	</g>
</svg>
