<?xml version="1.0" encoding="UTF-8"?>
<svg width="18px" height="17px" viewBox="0 0 18 17" version="1.1" xmlns="http://www.w3.org/2000/svg" xmlns:xlink="http://www.w3.org/1999/xlink">
    <!-- Generator: Sketch 46.2 (44496) - http://www.bohemiancoding.com/sketch -->
    <title>work - material</title>
    <desc>Created with Sketch.</desc>
    <defs></defs>
    <g id="Symbols" stroke="none" stroke-width="1" fill="none" fill-rule="evenodd">
        <g id="icons-/-resources" transform="translate(-1.000000, -1.000000)" fill="#ECEDEF">
            <path d="M11.68,5 L11.68,3.32 L8.32,3.32 L8.32,5 L11.68,5 Z M16.68,5 C17.146669,5 17.5366651,5.1633317 17.85,5.49 C18.1633349,5.8166683 18.32,6.213331 18.32,6.68 L18.32,15.82 C18.32,16.286669 18.1633349,16.6833317 17.85,17.01 C17.5366651,17.3366683 17.146669,17.5 16.68,17.5 L3.32,17.5 C2.853331,17.5 2.4633349,17.3366683 2.15,17.01 C1.8366651,16.6833317 1.68,16.286669 1.68,15.82 L1.68,6.68 C1.68,6.213331 1.8366651,5.8166683 2.15,5.49 C2.4633349,5.1633317 2.853331,5 3.32,5 L6.68,5 L6.68,3.32 C6.68,2.853331 6.8366651,2.4633349 7.15,2.15 C7.4633349,1.8366651 7.853331,1.68 8.32,1.68 L11.68,1.68 C12.146669,1.68 12.5366651,1.8366651 12.85,2.15 C13.1633349,2.4633349 13.32,2.853331 13.32,3.32 L13.32,5 L16.68,5 Z" id="work---material"></path>
        </g>
    </g>
</svg>